<svg width="46" height="60" viewBox="0 0 46 60" fill="none" xmlns="http://www.w3.org/2000/svg">
<rect width="46" height="60" fill="#E6E8EC"/>
<rect x="8" y="15" width="30" height="30" rx="15" fill="white"/>
<path d="M16.6895 35H15.7402V28.8945C15.7402 28.3867 15.7559 27.9062 15.7871 27.4531C15.7051 27.5352 15.6133 27.6211 15.5117 27.7109C15.4102 27.8008 14.9453 28.1816 14.1172 28.8535L13.6016 28.1855L15.8691 26.4336H16.6895V35ZM25.584 35H19.9531V34.1621L22.209 31.8945C22.8965 31.1992 23.3496 30.7031 23.5684 30.4062C23.7871 30.1094 23.9512 29.8203 24.0605 29.5391C24.1699 29.2578 24.2246 28.9551 24.2246 28.6309C24.2246 28.1738 24.0859 27.8125 23.8086 27.5469C23.5312 27.2773 23.1465 27.1426 22.6543 27.1426C22.2988 27.1426 21.9609 27.2012 21.6406 27.3184C21.3242 27.4355 20.9707 27.6484 20.5801 27.957L20.0645 27.2949C20.8535 26.6387 21.7129 26.3105 22.6426 26.3105C23.4473 26.3105 24.0781 26.5176 24.5352 26.9316C24.9922 27.3418 25.2207 27.8945 25.2207 28.5898C25.2207 29.1328 25.0684 29.6699 24.7637 30.2012C24.459 30.7324 23.8887 31.4043 23.0527 32.2168L21.1777 34.0508V34.0977H25.584V35ZM30.0605 30.3652H32.4746V31.1738H30.0605V33.6699H29.2461V31.1738H26.8438V30.3652H29.2461V27.8574H30.0605V30.3652Z" fill="#A1A6B4"/>
</svg>
