<svg width="447" height="12" viewBox="0 0 447 12" fill="none" xmlns="http://www.w3.org/2000/svg">
<path d="M1 1C9.24396 1 9.24396 11 17.4879 11C25.7319 11 25.7319 1 33.9758 1C42.2198 1 42.2198 11 50.4445 11C58.6887 11 58.6887 1 66.9131 1C75.1572 1 75.1572 11 83.3816 11C91.6257 11 91.6257 1 99.8693 1C108.113 1 108.113 11 116.358 11C124.601 11 124.601 1 132.845 1C141.089 1 141.089 11 149.334 11C157.577 11 157.577 1 165.821 1C174.065 1 174.065 11 182.309 11C190.553 11 190.553 1 198.797 1C207.041 1 207.041 11 215.266 11C223.51 11 223.51 1 231.734 1C239.978 1 239.978 11 248.203 11C256.447 11 256.447 1 264.69 1C272.935 1 272.935 11 281.179 11C289.422 11 289.422 1 297.666 1C305.911 1 305.911 11 314.155 11C322.398 11 322.398 1 330.642 1C338.886 1 338.886 11 347.13 11C355.374 11 355.374 1 363.618 1C371.862 1 371.862 11 380.087 11C388.331 11 388.331 1 396.556 1C404.8 1 404.8 11 413.024 11C421.268 11 421.268 1 429.512 1C437.756 1 437.756 11 446 11" stroke="#A1A6B4" stroke-miterlimit="10" stroke-linecap="square"/>
</svg>
