<svg width="1920" height="12" viewBox="0 0 1920 12" fill="none" xmlns="http://www.w3.org/2000/svg">
<path opacity="0.6" d="M-146 1C-137.756 1 -137.756 11 -129.512 11C-121.268 11 -121.268 1 -113.024 1C-104.78 1 -104.78 11 -96.5555 11C-88.3113 11 -88.3113 1 -80.0869 1C-71.8428 1 -71.8428 11 -63.6184 11C-55.3743 11 -55.3743 1 -47.1307 1C-38.8866 1 -38.8866 11 -30.6424 11C-22.3989 11 -22.3989 1 -14.1548 1C-5.91061 1 -5.91062 11 2.33353 11C10.5771 11 10.5771 1 18.8212 1C27.0652 1 27.0652 11 35.3091 11C43.5531 11 43.5531 1 51.7971 1C60.041 1 60.041 11 68.2657 11C76.5099 11 76.5099 1 84.7343 1C92.9784 1 92.9784 11 101.203 11C109.447 11 109.447 1 117.69 1C125.935 1 125.935 11 134.179 11C142.422 11 142.422 1 150.666 1C158.911 1 158.911 11 167.155 11C175.398 11 175.398 1 183.642 1C191.886 1 191.886 11 200.13 11C208.374 11 208.374 1 216.618 1C224.862 1 224.862 11 233.087 11C241.331 11 241.331 1 249.556 1C257.8 1 257.8 11 266.024 11C274.268 11 274.268 1 282.512 1M283 1C291.244 1 291.244 11 299.488 11C307.732 11 307.732 1 315.976 1C324.22 1 324.22 11 332.444 11C340.689 11 340.689 1 348.913 1C357.157 1 357.157 11 365.382 11C373.626 11 373.626 1 381.869 1C390.113 1 390.113 11 398.358 11C406.601 11 406.601 1 414.845 1C423.089 1 423.089 11 431.333 11C439.577 11 439.577 1 447.821 1C456.065 1 456.065 11 464.309 11C472.553 11 472.553 1 480.797 1C489.041 1 489.041 11 497.266 11C505.51 11 505.51 1 513.734 1C521.978 1 521.978 11 530.203 11C538.447 11 538.447 1 546.69 1C554.935 1 554.935 11 563.179 11C571.422 11 571.422 1 579.666 1C587.911 1 587.911 11 596.155 11C604.398 11 604.398 1 612.642 1C620.886 1 620.886 11 629.13 11C637.374 11 637.374 1 645.618 1C653.862 1 653.862 11 662.087 11C670.331 11 670.331 1 678.555 1C686.8 1 686.8 11 695.024 11C703.268 11 703.268 1 711.512 1C719.756 1 719.756 11 728 11C736.244 11 736.244 1 744.488 1C752.732 1 752.732 11 760.976 11C769.22 11 769.22 1 777.444 1C785.689 1 785.689 11 793.913 11C802.157 11 802.157 1 810.382 1C818.626 1 818.626 11 826.869 11C835.113 11 835.113 1 843.358 1C851.601 1 851.601 11 859.845 11C868.089 11 868.089 1 876.333 1C884.577 1 884.577 11 892.821 11C901.065 11 901.065 1 909.309 1C917.553 1 917.553 11 925.797 11C934.041 11 934.041 1 942.266 1C950.51 1 950.51 11 958.734 11C966.978 11 966.978 1 975.203 1C983.447 1 983.447 11 991.69 11C999.935 11 999.935 1 1008.18 1C1016.42 1 1016.42 11 1024.67 11C1032.91 11 1032.91 1 1041.15 1C1049.4 1 1049.4 11 1057.64 11C1065.89 11 1065.89 1 1074.13 1C1082.37 1 1082.37 11 1090.62 11C1098.86 11 1098.86 1 1107.09 1C1115.33 1 1115.33 11 1123.56 11C1131.8 11 1131.8 1 1140.02 1C1148.27 1 1148.27 11 1156.51 11C1164.76 11 1164.76 1 1173 1M1174 1C1182.24 1 1182.24 11 1190.49 11C1198.73 11 1198.73 1 1206.98 1C1215.22 1 1215.22 11 1223.44 11C1231.69 11 1231.69 1 1239.91 1C1248.16 1 1248.16 11 1256.38 11C1264.63 11 1264.63 1 1272.87 1C1281.11 1 1281.11 11 1289.36 11C1297.6 11 1297.6 1 1305.85 1C1314.09 1 1314.09 11 1322.33 11C1330.58 11 1330.58 1 1338.82 1C1347.07 1 1347.07 11 1355.31 11C1363.55 11 1363.55 1 1371.8 1C1380.04 1 1380.04 11 1388.27 11C1396.51 11 1396.51 1 1404.73 1C1412.98 1 1412.98 11 1421.2 11C1429.45 11 1429.45 1 1437.69 1C1445.93 1 1445.93 11 1454.18 11C1462.42 11 1462.42 1 1470.67 1C1478.91 1 1478.91 11 1487.15 11C1495.4 11 1495.4 1 1503.64 1C1511.89 1 1511.89 11 1520.13 11C1528.37 11 1528.37 1 1536.62 1C1544.86 1 1544.86 11 1553.09 11C1561.33 11 1561.33 1 1569.56 1C1577.8 1 1577.8 11 1586.02 11C1594.27 11 1594.27 1 1602.51 1C1610.76 1 1610.76 11 1619 11M1620 11C1628.24 11 1628.24 1 1636.49 1C1644.73 1 1644.73 11 1652.98 11C1661.22 11 1661.22 1 1669.44 1C1677.69 1 1677.69 11 1685.91 11C1694.16 11 1694.16 1 1702.38 1C1710.63 1 1710.63 11 1718.87 11C1727.11 11 1727.11 1 1735.36 1C1743.6 1 1743.6 11 1751.85 11C1760.09 11 1760.09 1 1768.33 1C1776.58 1 1776.58 11 1784.82 11C1793.07 11 1793.07 1 1801.31 1C1809.55 1 1809.55 11 1817.8 11C1826.04 11 1826.04 1 1834.27 1C1842.51 1 1842.51 11 1850.73 11C1858.98 11 1858.98 1 1867.2 1C1875.45 1 1875.45 11 1883.69 11C1891.93 11 1891.93 1 1900.18 1C1908.42 1 1908.42 11 1916.67 11C1924.91 11 1924.91 1 1933.15 1C1941.4 1 1941.4 11 1949.64 11C1957.89 11 1957.89 1 1966.13 1C1974.37 1 1974.37 11 1982.62 11C1990.86 11 1990.86 1 1999.09 1C2007.33 1 2007.33 11 2015.56 11C2023.8 11 2023.8 1 2032.02 1C2040.27 1 2040.27 11 2048.51 11C2056.76 11 2056.76 1 2065 1" stroke="#F5F6F7" stroke-miterlimit="10" stroke-linecap="square"/>
</svg>
