<svg width="255" height="255" viewBox="0 0 255 255" fill="none" xmlns="http://www.w3.org/2000/svg">
<path opacity="0.5" d="M127.5 0L127.525 127.375L176.292 9.70532L127.571 127.394L217.656 37.3439L127.606 127.429L245.295 78.7076L127.625 127.475L255 127.5L127.625 127.525L245.295 176.292L127.606 127.571L217.656 217.656L127.571 127.606L176.292 245.295L127.525 127.625L127.5 255L127.475 127.625L78.7076 245.295L127.429 127.606L37.3439 217.656L127.394 127.571L9.70532 176.292L127.375 127.525L0 127.5L127.375 127.475L9.70532 78.7076L127.394 127.429L37.3439 37.3439L127.429 127.394L78.7076 9.70532L127.475 127.375L127.5 0Z" stroke="#A1A6B4"/>
</svg>
