<svg width="34" height="34" viewBox="0 0 34 34" fill="none" xmlns="http://www.w3.org/2000/svg">
<path d="M23.3002 33.6667V20.7667H27.6205L28.2668 15.7519H23.3002V12.5519C23.3002 11.1 23.7039 10.1093 25.7853 10.1093H28.4409V5.62408C27.1553 5.48769 25.8633 5.42154 24.5705 5.42594C20.7428 5.42594 18.1224 7.76297 18.1224 12.0556V15.7519H13.7928V20.7667H18.1224V33.6667H2.18535C1.69421 33.6667 1.22318 33.4716 0.875891 33.1243C0.528601 32.777 0.333496 32.306 0.333496 31.8148V2.1852C0.333496 1.69405 0.528601 1.22303 0.875891 0.875738C1.22318 0.528449 1.69421 0.333344 2.18535 0.333344H31.815C32.3061 0.333344 32.7771 0.528449 33.1244 0.875738C33.4717 1.22303 33.6668 1.69405 33.6668 2.1852V31.8148C33.6668 32.306 33.4717 32.777 33.1244 33.1243C32.7771 33.4716 32.3061 33.6667 31.815 33.6667H23.3002Z" fill="#A1A6B4"/>
</svg>
