<svg width="25" height="17" viewBox="0 0 25 17" fill="none" xmlns="http://www.w3.org/2000/svg">
<path d="M25 0V9.86096C25 12.1849 24.3712 13.9597 23.1137 15.1854C21.8561 16.3951 20.0732 17 17.765 17C16.6189 17 15.5922 16.8329 14.6848 16.4986C13.7934 16.1643 13.0611 15.6948 12.4881 15.0899C11.8991 15.6948 11.1589 16.1643 10.2674 16.4986C9.376 16.8329 8.36517 17 7.23496 17C4.92677 17 3.1439 16.3951 1.88634 15.1854C0.628781 13.9597 0 12.1849 0 9.86096V0H3.86819V9.74157C3.86819 11.0946 4.14677 12.0974 4.70392 12.75C5.26106 13.3867 6.08883 13.7051 7.1872 13.7051C9.43171 13.7051 10.554 12.3839 10.554 9.74157V0H14.4222V9.74157C14.4222 12.3839 15.5524 13.7051 17.8128 13.7051C20.0096 13.7051 21.1079 12.3839 21.1079 9.74157V0H25Z" fill="#292E39"/>
</svg>
