<svg width="34" height="34" viewBox="0 0 34 34" fill="none" xmlns="http://www.w3.org/2000/svg">
<rect width="33.33" height="33.33" rx="2" fill="#A1A6B4"/>
<path d="M20.9403 11.9923C20.1517 11.2694 18.7687 10.4043 16.7183 10.4043C13.8309 10.4043 11.3802 12.2649 10.4945 14.8364C10.2761 15.5001 10.1427 16.2111 10.1427 16.9459C10.1427 17.6806 10.2761 18.3917 10.5066 19.0553C11.3802 21.6269 13.8309 23.4874 16.7183 23.4874C18.344 23.4874 19.5815 23.0489 20.5036 22.4208C21.9595 21.4254 22.6146 19.9441 22.7359 18.9605H16.7183V15.0024H26.9701C27.1277 15.666 27.2006 16.3059 27.2006 17.1829C27.2006 20.4299 26.0116 23.1675 23.9491 25.028C22.1414 26.6634 19.6664 27.6115 16.7183 27.6115C12.4477 27.6115 8.75954 25.2176 6.96398 21.7335C6.22395 20.2877 5.79932 18.6642 5.79932 16.9459C5.79932 15.2275 6.22395 13.604 6.96398 12.1582C8.75954 8.67409 12.4477 6.28027 16.7183 6.28027C19.6664 6.28027 22.1293 7.33499 24.0219 9.05333L20.9403 11.9923Z" fill="#121723"/>
</svg>
