<svg width="88" height="10" viewBox="0 0 88 10" fill="none" xmlns="http://www.w3.org/2000/svg">
<path d="M16.3997 0.165745V5.87017C16.3997 7.21455 15.9998 8.24125 15.2 8.95028C14.4002 9.65009 13.2663 10 11.7984 10C11.0694 10 10.4164 9.90331 9.83936 9.70994C9.27242 9.51657 8.80672 9.24494 8.44226 8.89503C8.06767 9.24494 7.5969 9.51657 7.02996 9.70994C6.46302 9.90331 5.82015 10 5.10135 10C3.63337 10 2.49948 9.65009 1.69969 8.95028C0.899897 8.24125 0.5 7.21455 0.5 5.87017V0.165745H2.96012V5.8011C2.96012 6.58379 3.13729 7.1639 3.49163 7.54144C3.84597 7.90976 4.37242 8.09392 5.07097 8.09392C6.49845 8.09392 7.21219 7.32965 7.21219 5.8011V0.165745H9.67232V5.8011C9.67232 7.32965 10.3911 8.09392 11.8287 8.09392C13.2258 8.09392 13.9244 7.32965 13.9244 5.8011V0.165745H16.3997Z" fill="#292E39"/>
<path d="M53.6172 0.165745V5.87017C53.6172 7.21455 53.2173 8.24125 52.4175 8.95028C51.6177 9.65009 50.4838 10 49.0158 10C48.2869 10 47.6339 9.90331 47.0568 9.70994C46.4899 9.51657 46.0242 9.24494 45.6597 8.89503C45.2851 9.24494 44.8144 9.51657 44.2474 9.70994C43.6805 9.90331 43.0376 10 42.3188 10C40.8508 10 39.7169 9.65009 38.9172 8.95028C38.1174 8.24125 37.7175 7.21455 37.7175 5.87017V0.165745H40.1776V5.8011C40.1776 6.58379 40.3548 7.1639 40.7091 7.54144C41.0634 7.90976 41.5899 8.09392 42.2884 8.09392C43.7159 8.09392 44.4297 7.32965 44.4297 5.8011V0.165745H46.8898V5.8011C46.8898 7.32965 47.6086 8.09392 49.0462 8.09392C50.4433 8.09392 51.1418 7.32965 51.1418 5.8011V0.165745H53.6172Z" fill="#292E39"/>
<path d="M60.8331 0C61.8151 0 62.6706 0.174954 63.3995 0.524862C64.1285 0.87477 64.6954 1.39042 65.1004 2.07182C65.5053 2.75322 65.7078 3.57735 65.7078 4.5442V9.83425H63.2477V7.51381H58.3882V9.83425H55.9584V4.5442C55.9584 3.57735 56.1609 2.75322 56.5658 2.07182C56.9708 1.39042 57.5377 0.87477 58.2667 0.524862C58.9956 0.174954 59.8511 0 60.8331 0ZM63.2477 5.71823V4.33702C63.2477 3.53591 63.03 2.93278 62.5947 2.52762C62.1593 2.11326 61.5671 1.90608 60.8179 1.90608C60.0586 1.90608 59.4613 2.11326 59.026 2.52762C58.6008 2.93278 58.3882 3.53591 58.3882 4.33702V5.71823H63.2477Z" fill="#292E39"/>
<path d="M78.0595 0.165745L73.4582 9.83425H71.0285L66.4423 0.165745H69.0998L72.3344 7.07182L75.6146 0.165745H78.0595Z" fill="#292E39"/>
<path d="M87.5 9.00552C86.9938 9.3186 86.356 9.56261 85.5866 9.73757C84.8273 9.91252 84.0173 10 83.1568 10C82.0837 10 81.1725 9.88029 80.4233 9.64088C79.6742 9.39226 79.1072 9.05157 78.7225 8.61878C78.3378 8.1768 78.1454 7.67495 78.1454 7.11326C78.1454 6.59761 78.3024 6.14181 78.6162 5.74586C78.9301 5.34991 79.3603 5.05525 79.907 4.86188C79.4919 4.6593 79.168 4.38306 78.9351 4.03315C78.7124 3.68324 78.601 3.2919 78.601 2.85912C78.601 2.33425 78.7782 1.85543 79.1325 1.42265C79.4869 0.989871 80.0234 0.644567 80.7422 0.38674C81.461 0.128913 82.3418 0 83.3846 0C84.073 0 84.7463 0.0644567 85.4043 0.19337C86.0624 0.313075 86.6344 0.478821 87.1203 0.690607L86.437 2.40331C85.5056 2.00737 84.5185 1.80939 83.4757 1.80939C82.686 1.80939 82.0887 1.91989 81.6838 2.14088C81.2889 2.35267 81.0915 2.64273 81.0915 3.01105C81.0915 3.35175 81.2231 3.61418 81.4863 3.79834C81.7597 3.9733 82.1697 4.06077 82.7164 4.06077H85.6169V5.82873H82.5646C81.947 5.82873 81.4712 5.92541 81.1371 6.11878C80.803 6.31215 80.6359 6.593 80.6359 6.96133C80.6359 7.34807 80.8485 7.65193 81.2737 7.87293C81.7091 8.08471 82.3722 8.19061 83.2631 8.19061C83.8908 8.19061 84.5185 8.11694 85.1462 7.96961C85.7739 7.81308 86.3054 7.59669 86.7407 7.32044L87.5 9.00552Z" fill="#292E39"/>
<path d="M31.0481 5.42243H18.5V3.57757H31.0481L28.8263 1.30451L30.1014 0L34.5 4.5L30.1014 9L28.8263 7.69549L31.0481 5.42243Z" fill="#6D31EE"/>
</svg>
