<svg width="112" height="14" viewBox="0 0 112 14" fill="none" xmlns="http://www.w3.org/2000/svg">
<path d="M20.4686 0.232044V8.21823C20.4686 10.1004 19.9538 11.5378 18.9241 12.5304C17.8945 13.5101 16.4348 14 14.545 14C13.6066 14 12.766 13.8646 12.0231 13.5939C11.2932 13.3232 10.6937 12.9429 10.2245 12.453C9.74229 12.9429 9.13625 13.3232 8.40639 13.5939C7.67653 13.8646 6.84893 14 5.92357 14C4.03376 14 2.57405 13.5101 1.54443 12.5304C0.51481 11.5378 0 10.1004 0 8.21823V0.232044H3.16706V8.12155C3.16706 9.21731 3.39514 10.0295 3.8513 10.558C4.30746 11.0737 4.98518 11.3315 5.88447 11.3315C7.72215 11.3315 8.64099 10.2615 8.64099 8.12155V0.232044H11.808V8.12155C11.808 10.2615 12.7334 11.3315 14.5841 11.3315C16.3827 11.3315 17.282 10.2615 17.282 8.12155V0.232044H20.4686Z" fill="#292E39"/>
<path d="M68.3807 0.232044V8.21823C68.3807 10.1004 67.8659 11.5378 66.8363 12.5304C65.8067 13.5101 64.3469 14 62.4571 14C61.5188 14 60.6781 13.8646 59.9352 13.5939C59.2054 13.3232 58.6058 12.9429 58.1366 12.453C57.6544 12.9429 57.0484 13.3232 56.3185 13.5939C55.5887 13.8646 54.7611 14 53.8357 14C51.9459 14 50.4862 13.5101 49.4566 12.5304C48.4269 11.5378 47.9121 10.1004 47.9121 8.21823V0.232044H51.0792V8.12155C51.0792 9.21731 51.3073 10.0295 51.7634 10.558C52.2196 11.0737 52.8973 11.3315 53.7966 11.3315C55.6343 11.3315 56.5531 10.2615 56.5531 8.12155V0.232044H59.7202V8.12155C59.7202 10.2615 60.6455 11.3315 62.4962 11.3315C64.2948 11.3315 65.1941 10.2615 65.1941 8.12155V0.232044H68.3807Z" fill="#292E39"/>
<path d="M77.6702 0C78.9344 0 80.0357 0.244936 80.9741 0.734807C81.9125 1.22468 82.6423 1.94659 83.1637 2.90055C83.685 3.85451 83.9457 5.00829 83.9457 6.36188V13.768H80.7786V10.5193H74.5227V13.768H71.3947V6.36188C71.3947 5.00829 71.6554 3.85451 72.1767 2.90055C72.6981 1.94659 73.4279 1.22468 74.3663 0.734807C75.3047 0.244936 76.406 0 77.6702 0ZM80.7786 8.00552V6.07182C80.7786 4.95028 80.4984 4.10589 79.938 3.53867C79.3775 2.95856 78.6151 2.66851 77.6507 2.66851C76.6732 2.66851 75.9042 2.95856 75.3438 3.53867C74.7964 4.10589 74.5227 4.95028 74.5227 6.07182V8.00552H80.7786Z" fill="#292E39"/>
<path d="M99.8468 0.232044L93.9232 13.768H90.7952L84.8912 0.232044H88.3124L92.4765 9.90055L96.6993 0.232044H99.8468Z" fill="#292E39"/>
<path d="M112 12.6077C111.348 13.046 110.527 13.3877 109.537 13.6326C108.559 13.8775 107.517 14 106.409 14C105.027 14 103.854 13.8324 102.89 13.4972C101.925 13.1492 101.196 12.6722 100.7 12.0663C100.205 11.4475 99.9574 10.7449 99.9574 9.95856C99.9574 9.23665 100.159 8.59853 100.563 8.0442C100.967 7.48987 101.521 7.07735 102.225 6.80663C101.691 6.52302 101.274 6.13628 100.974 5.64641C100.687 5.15654 100.544 4.60865 100.544 4.00276C100.544 3.26796 100.772 2.59761 101.228 1.99171C101.684 1.38582 102.375 0.902394 103.3 0.541436C104.226 0.180479 105.36 0 106.702 0C107.588 0 108.455 0.0902394 109.302 0.270718C110.149 0.438305 110.886 0.670349 111.511 0.96685L110.632 3.36464C109.432 2.81031 108.162 2.53315 106.819 2.53315C105.803 2.53315 105.034 2.68784 104.512 2.99724C104.004 3.29374 103.75 3.69982 103.75 4.21547C103.75 4.69245 103.919 5.05985 104.258 5.31768C104.61 5.56261 105.138 5.68508 105.842 5.68508H109.576V8.16022H105.646C104.851 8.16022 104.239 8.29558 103.809 8.5663C103.379 8.83702 103.164 9.2302 103.164 9.74586C103.164 10.2873 103.437 10.7127 103.985 11.0221C104.545 11.3186 105.399 11.4668 106.546 11.4668C107.354 11.4668 108.162 11.3637 108.97 11.1575C109.778 10.9383 110.462 10.6354 111.022 10.2486L112 12.6077Z" fill="#292E39"/>
<path d="M39.4694 7.62741H23V5.37258H39.4694L36.5532 2.5944L38.2268 1L44 6.5L38.2268 12L36.5532 10.4056L39.4694 7.62741Z" fill="#6D31EE"/>
</svg>
