<svg width="160" height="20" viewBox="0 0 160 20" fill="none" xmlns="http://www.w3.org/2000/svg">
<path d="M29.2408 0.331491V11.7403C29.2408 14.4291 28.5054 16.4825 27.0345 17.9006C25.5636 19.3002 23.4783 20 20.7786 20C19.438 20 18.2371 19.8066 17.1758 19.4199C16.1332 19.0331 15.2767 18.4899 14.6064 17.7901C13.9176 18.4899 13.0518 19.0331 12.0091 19.4199C10.9665 19.8066 9.78418 20 8.46224 20C5.76252 20 3.67721 19.3002 2.20633 17.9006C0.735443 16.4825 0 14.4291 0 11.7403V0.331491H4.52437V11.6022C4.52437 13.1676 4.8502 14.3278 5.50186 15.0829C6.15351 15.8195 7.12169 16.1878 8.40639 16.1878C11.0316 16.1878 12.3443 14.6593 12.3443 11.6022V0.331491H16.8686V11.6022C16.8686 14.6593 18.1906 16.1878 20.8344 16.1878C23.4038 16.1878 24.6885 14.6593 24.6885 11.6022V0.331491H29.2408Z" fill="#292E39"/>
<path d="M97.6867 0.331491V11.7403C97.6867 14.4291 96.9513 16.4825 95.4804 17.9006C94.0095 19.3002 91.9242 20 89.2245 20C87.8839 20 86.683 19.8066 85.6217 19.4199C84.5791 19.0331 83.7226 18.4899 83.0524 17.7901C82.3635 18.4899 81.4977 19.0331 80.455 19.4199C79.4124 19.8066 78.2301 20 76.9082 20C74.2084 20 72.1231 19.3002 70.6522 17.9006C69.1814 16.4825 68.4459 14.4291 68.4459 11.7403V0.331491H72.9703V11.6022C72.9703 13.1676 73.2961 14.3278 73.9478 15.0829C74.5994 15.8195 75.5676 16.1878 76.8523 16.1878C79.4775 16.1878 80.7902 14.6593 80.7902 11.6022V0.331491H85.3145V11.6022C85.3145 14.6593 86.6365 16.1878 89.2803 16.1878C91.8497 16.1878 93.1344 14.6593 93.1344 11.6022V0.331491H97.6867Z" fill="#292E39"/>
<path d="M110.957 0C112.763 0 114.337 0.349908 115.677 1.04972C117.018 1.74954 118.061 2.78085 118.805 4.14365C119.55 5.50644 119.922 7.1547 119.922 9.0884V19.6685H115.398V15.0276H106.461V19.6685H101.992V9.0884C101.992 7.1547 102.365 5.50644 103.11 4.14365C103.854 2.78085 104.897 1.74954 106.238 1.04972C107.578 0.349908 109.151 0 110.957 0ZM115.398 11.4365V8.67403C115.398 7.07182 114.998 5.86556 114.197 5.05525C113.396 4.22652 112.307 3.81216 110.93 3.81216C109.533 3.81216 108.435 4.22652 107.634 5.05525C106.852 5.86556 106.461 7.07182 106.461 8.67403V11.4365H115.398Z" fill="#292E39"/>
<path d="M142.638 0.331491L134.176 19.6685H129.708L121.273 0.331491H126.161L132.109 14.1436L138.142 0.331491H142.638Z" fill="#292E39"/>
<path d="M160 18.011C159.069 18.6372 157.896 19.1252 156.481 19.4751C155.085 19.825 153.595 20 152.013 20C150.039 20 148.363 19.7606 146.985 19.2818C145.608 18.7845 144.565 18.1031 143.857 17.2376C143.15 16.3536 142.796 15.3499 142.796 14.2265C142.796 13.1952 143.085 12.2836 143.662 11.4917C144.239 10.6998 145.03 10.1105 146.036 9.72376C145.273 9.3186 144.677 8.76611 144.248 8.0663C143.839 7.36648 143.634 6.58379 143.634 5.71823C143.634 4.66851 143.96 3.71087 144.612 2.8453C145.263 1.97974 146.25 1.28913 147.572 0.773481C148.894 0.257827 150.514 0 152.431 0C153.698 0 154.936 0.128913 156.146 0.38674C157.356 0.62615 158.408 0.957641 159.302 1.38121L158.045 4.80663C156.332 4.01473 154.517 3.61878 152.599 3.61878C151.147 3.61878 150.048 3.83978 149.303 4.28177C148.577 4.70534 148.214 5.28545 148.214 6.0221C148.214 6.7035 148.456 7.22836 148.94 7.59668C149.443 7.94659 150.197 8.12155 151.203 8.12155H156.537V11.6575H150.923C149.788 11.6575 148.912 11.8508 148.298 12.2376C147.684 12.6243 147.376 13.186 147.376 13.9227C147.376 14.6961 147.767 15.3039 148.549 15.7459C149.35 16.1694 150.57 16.3812 152.208 16.3812C153.362 16.3812 154.517 16.2339 155.671 15.9392C156.825 15.6262 157.803 15.1934 158.604 14.6409L160 18.011Z" fill="#292E39"/>
<path d="M56.8231 11.2023H33.5483V7.82997H56.8231L52.7019 3.67492L55.067 1.29033L63.2258 9.51613L55.067 17.7419L52.7019 15.3574L56.8231 11.2023Z" fill="#6D31EE"/>
</svg>
