<svg width="62" height="62" viewBox="0 0 62 62" fill="none" xmlns="http://www.w3.org/2000/svg">
<path d="M58.8904 34.7249C60.691 32.568 60.691 29.432 58.8904 27.2751L56.662 24.6057C55.6768 23.4255 55.1993 21.903 55.334 20.3715L55.6419 16.8701C55.8946 13.9974 54.0028 11.3738 51.1974 10.7062L48.3787 10.0355C46.8036 9.66069 45.4562 8.64587 44.661 7.23547L43.1887 4.62402C41.7123 2.00521 38.4825 0.944387 35.7408 2.17776L33.3846 3.23773C31.8681 3.91997 30.1319 3.91997 28.6154 3.23773L26.2526 2.17483C23.5137 0.942683 20.287 2.00008 18.8086 4.61431L17.3443 7.20337C16.5459 8.61518 15.1939 9.62917 13.615 10.0003L10.8182 10.6577C8.00558 11.3189 6.10555 13.9456 6.35802 16.8239L6.6672 20.3487C6.80118 21.8762 6.32614 23.3948 5.34554 24.5737L3.09747 27.2763C1.30315 29.4334 1.30591 32.5643 3.10401 34.7183L5.33847 37.3949C6.32341 38.5748 6.80097 40.0967 6.66667 41.6277L6.3568 45.1605C6.10486 48.0327 7.99654 50.6555 10.8015 51.323L13.6258 51.9951C15.1983 52.3693 16.544 53.3814 17.3397 54.7883L18.8019 57.3738C20.2831 59.993 23.5185 61.0487 26.2595 59.8072L28.61 58.7425C30.1295 58.0543 31.8715 58.0521 33.3928 58.7364L35.7474 59.7956C38.4863 61.0278 41.713 59.9704 43.1914 57.3562L44.6603 54.7588C45.456 53.3518 46.8017 52.3398 48.3742 51.9656L51.1974 51.2937C54.0028 50.6262 55.8946 48.0026 55.6419 45.1299L55.334 41.6285C55.1993 40.097 55.6768 38.5745 56.662 37.3943L58.8904 34.7249Z" fill="#F0D288"/>
<path d="M20.9098 45.298L15.4231 38.5225L16.6448 37.5331L17.2794 38.3168C17.2659 37.2824 17.6834 36.4217 18.5319 35.7347C19.4368 35.0018 20.3611 34.767 21.3047 35.0301C21.8847 35.1912 22.5096 35.6854 23.1795 36.5126L26.5773 40.7085L25.3556 41.6979L21.9842 37.5346C21.5347 36.9795 21.0923 36.6529 20.657 36.5549C20.1324 36.439 19.6156 36.5872 19.1065 36.9994C18.5861 37.4208 18.3143 37.9293 18.2909 38.525C18.26 39.1807 18.5839 39.9277 19.2626 40.7658L22.1315 44.3086L20.9098 45.298Z" fill="#292E39"/>
<path d="M32.269 32.342L33.7234 32.0563C33.8384 32.684 33.8452 33.2823 33.7438 33.8509C33.5485 34.9282 32.9927 35.8378 32.0764 36.5798C31.1262 37.3493 30.068 37.7196 28.902 37.6906C27.7385 37.6416 26.6808 37.0294 25.7289 35.8538C24.8916 34.8198 24.5051 33.7181 24.5695 32.5486C24.6364 31.359 25.1902 30.3429 26.2309 29.5001C27.4074 28.5474 28.6304 28.2419 29.8998 28.5836C30.9038 28.8519 31.8118 29.5223 32.6241 30.5946L27.1432 35.0329C27.7098 35.7095 28.3799 36.086 29.1535 36.1624C29.9271 36.2388 30.625 36.025 31.2472 35.5212C31.8015 35.0723 32.1501 34.5197 32.2929 33.8634C32.3981 33.3457 32.3901 32.8385 32.269 32.342ZM26.4348 33.9846L30.5751 30.6319C30.0414 30.181 29.4545 29.9534 28.8142 29.9493C28.1765 29.925 27.5975 30.1236 27.0771 30.545C26.568 30.9572 26.2522 31.4923 26.1295 32.1504C26.0093 32.7884 26.111 33.3998 26.4348 33.9846Z" fill="#292E39"/>
<path d="M30.545 26.277L31.9025 25.1777L37.7179 28.0917L35.7724 21.1788L42.1128 24.5328L40.4885 18.2248L41.846 17.1256L44.2206 27.2052L37.9502 23.9028L39.8767 30.7228L30.545 26.277Z" fill="#292E39"/>
</svg>
