<svg width="100" height="100" viewBox="0 0 100 100" fill="none" xmlns="http://www.w3.org/2000/svg">
<path d="M92.5703 58.8999C96.8668 53.7532 96.8668 46.2468 92.5703 41.1001C90.2286 38.2949 89.0888 34.6706 89.409 31.0305L89.4731 30.3014C90.0368 23.8924 85.813 18.0383 79.554 16.5489C76.043 15.7134 73.0379 13.451 71.2655 10.3071L71.0304 9.89014C67.8725 4.28887 60.9645 2.01991 55.1004 4.65792C51.8567 6.11714 48.1418 6.11645 44.8981 4.65724C39.0346 2.01947 32.1239 4.28176 28.9588 9.87827L28.7406 10.2641C26.9646 13.4045 23.9572 15.66 20.4451 16.4855C14.1886 17.9562 9.96223 23.7991 10.5238 30.2015L10.5928 30.9882C10.9119 34.6256 9.76588 38.2596 7.43081 41.0668C3.14366 46.2207 3.12583 53.7444 7.42205 58.8908C9.76998 61.7034 10.9112 65.3347 10.591 68.9845L10.5248 69.74C9.96226 76.153 14.2015 82.0127 20.4642 83.503C23.9602 84.3349 26.9597 86.5869 28.7288 89.7149L28.9539 90.1131C32.1197 95.7107 39.0342 97.9669 44.8921 95.3136C48.1396 93.8426 51.8635 93.8383 55.1147 95.3009C60.9716 97.9357 67.8733 95.6755 71.0349 90.0853L71.2664 89.6759C73.0385 86.5424 76.0398 84.2873 79.5418 83.454C85.8047 81.9636 90.0366 76.1047 89.4725 69.6917L89.409 68.9695C89.0888 65.3294 90.2286 61.7051 92.5703 58.8999Z" fill="#F0D288"/>
<path d="M34.4067 75.32L24.745 62.9536L26.8947 61.274L28.0122 62.7044C27.9878 60.8679 28.722 59.3665 30.2149 58.2001C31.8073 56.956 33.434 56.5969 35.0949 57.1228C36.1159 57.4448 37.2161 58.3608 38.3957 59.8706L44.379 67.5288L42.2293 69.2084L36.2926 61.6097C35.501 60.5965 34.7221 59.9894 33.9559 59.7882C33.0325 59.5499 32.1229 59.7807 31.2272 60.4805C30.3116 61.1958 29.8334 62.0813 29.7926 63.1369C29.7387 64.2987 30.3093 65.6445 31.5044 67.1742L36.5565 73.6405L34.4067 75.32Z" fill="#292E39"/>
<path d="M54.3913 53.036L56.951 52.6198C57.1538 53.741 57.1662 54.8031 56.9881 55.806C56.6451 57.7056 55.6675 59.2852 54.0552 60.5448C52.3832 61.8511 50.5211 62.4422 48.4687 62.3181C46.4208 62.1585 44.5587 61.006 42.8825 58.8605C41.408 56.9733 40.727 54.9939 40.8396 52.9225C40.9565 50.8156 41.9306 49.0468 43.7619 47.6161C45.8319 45.9988 47.9843 45.5329 50.2188 46.2185C51.9861 46.7573 53.5848 48.0035 55.0151 49.9573L45.3713 57.4919C46.369 58.7279 47.5487 59.4378 48.9104 59.6216C50.2721 59.8054 51.5003 59.4697 52.5951 58.6144C53.5704 57.8524 54.1835 56.8934 54.4345 55.7376C54.6193 54.8254 54.6049 53.9249 54.3913 53.036ZM44.1237 55.5874L51.4088 49.8956C50.4691 49.0621 49.4359 48.6217 48.309 48.5743C47.1865 48.4916 46.1675 48.8078 45.2519 49.5232C44.3561 50.223 43.8005 51.153 43.585 52.3131C43.3739 53.4378 43.5534 54.5292 44.1237 55.5874Z" fill="#292E39"/>
<path d="M51.3528 42.1653L53.7414 40.2991L63.9791 45.8331L60.5502 33.4438L71.7121 39.7915L68.8491 28.4957L71.2376 26.6295L75.424 44.6655L64.3851 38.4138L67.7806 50.6372L51.3528 42.1653Z" fill="#292E39"/>
</svg>
