<svg width="160" height="160" viewBox="0 0 160 160" fill="none" xmlns="http://www.w3.org/2000/svg">
<path d="M151.975 89.6127C156.622 84.0465 156.622 75.9535 151.975 70.3873L146.225 63.4986C143.682 60.4529 142.45 56.5239 142.797 52.5716L143.592 43.5358C144.244 36.1224 139.362 29.3519 132.122 27.629L124.848 25.8981C120.783 24.9308 117.306 22.3119 115.254 18.6722L111.455 11.933C107.645 5.17474 99.3097 2.43713 92.2345 5.62002L86.1539 8.35543C82.2402 10.116 77.7598 10.116 73.8461 8.35543L67.7488 5.61247C60.6805 2.43274 52.3537 5.1615 48.5383 11.9079L44.7596 18.5893C42.6991 22.2327 39.21 24.8495 35.1354 25.8073L27.918 27.5038C20.6595 29.21 15.7563 35.9887 16.4078 43.4165L17.2057 52.5128C17.5514 56.4548 16.3255 60.3737 13.7949 63.4159L7.99347 70.3904C3.36298 75.9571 3.37009 84.037 8.01036 89.5956L13.7767 96.503C16.3185 99.5478 17.5509 103.475 17.2043 107.426L16.4046 116.543C15.7545 123.955 20.6362 130.724 27.8748 132.446L35.1634 134.181C39.2214 135.147 42.6941 137.758 44.7475 141.389L48.5209 148.061C52.3436 154.821 60.6929 157.545 67.7664 154.341L73.8322 151.594C77.7536 149.818 82.249 149.812 86.1749 151.578L92.2513 154.311C99.3195 157.491 107.646 154.762 111.462 148.016L115.252 141.313C117.306 137.682 120.779 135.07 124.837 134.105L132.122 132.371C139.362 130.648 144.244 123.878 143.592 116.464L142.797 107.428C142.45 103.476 143.682 99.5471 146.225 96.5014L151.975 89.6127Z" fill="#F0D288"/>
<path d="M55.9564 118.705L41.1423 100.411L44.3404 97.8209L46.0538 99.9368C45.9765 97.1772 47.0482 94.8982 49.2691 93.0998C51.6381 91.1814 54.0782 90.5922 56.5895 91.3322C58.1331 91.7852 59.8093 93.1285 61.6179 95.362L70.792 106.691L67.5939 109.281L58.4912 98.0399C57.2775 96.5411 56.0919 95.6522 54.9343 95.3731C53.5393 95.043 52.1755 95.4174 50.843 96.4965C49.4809 97.5995 48.7808 98.945 48.7428 100.533C48.6874 102.281 49.5759 104.286 51.4083 106.549L59.1545 116.115L55.9564 118.705Z" fill="#292E39"/>
<path d="M85.5394 84.6034L89.3825 83.8999C89.7125 85.579 89.7547 87.175 89.5088 88.6878C89.0347 91.5534 87.5983 93.9574 85.1997 95.8997C82.7124 97.9139 79.923 98.8589 76.8316 98.7347C73.746 98.5571 70.9181 96.8814 68.3479 93.7075C66.0871 90.9157 65.0185 87.9613 65.1421 84.8444C65.2715 81.6741 66.6983 78.9859 69.4226 76.7798C72.5022 74.286 75.7311 73.5203 79.1091 74.4829C81.7807 75.2391 84.2144 77.0637 86.4101 79.9569L72.0632 91.5748C73.5921 93.4023 75.3832 94.4335 77.4365 94.6684C79.4899 94.9033 81.3309 94.3613 82.9596 93.0425C84.4105 91.8675 85.3121 90.4076 85.6642 88.6627C85.9222 87.2859 85.8806 85.9328 85.5394 84.6034ZM70.1435 88.7501L80.9814 79.9737C79.5488 78.7495 77.984 78.1189 76.2871 78.082C74.596 77.9916 73.0693 78.498 71.7072 79.601C70.3747 80.6801 69.559 82.0948 69.2604 83.8451C68.9675 85.542 69.2619 87.177 70.1435 88.7501Z" fill="#292E39"/>
<path d="M80.7261 68.3563L84.2795 65.4788L99.8094 73.4857L94.3749 54.9681L111.314 64.1698L106.755 47.2786L110.308 44.4011L117.008 71.383L100.256 62.3216L105.637 80.591L80.7261 68.3563Z" fill="#292E39"/>
</svg>
