<svg width="20" height="20" viewBox="0 0 20 20" fill="none" xmlns="http://www.w3.org/2000/svg">
<path d="M8.23378 6.14624C8.23378 7.0928 9.05694 7.86023 10.0724 7.86023C11.088 7.86023 11.9111 7.0928 11.9111 6.14624C11.9111 5.19968 11.088 4.43231 10.0724 4.43231C9.05694 4.43231 8.23378 5.19968 8.23378 6.14624Z" fill="#D2D5DD"/>
<path fill-rule="evenodd" clip-rule="evenodd" d="M6 0C2.68629 0 0 2.68629 0 6V14C0 17.3137 2.68629 20 6 20H14C17.3137 20 20 17.3137 20 14V6C20 2.68629 17.3137 0 14 0H6ZM5.62436 6.14617C5.62436 3.85633 7.61571 2 10.0724 2C12.5292 2 14.5206 3.85633 14.5206 6.14617C14.5206 8.43606 12.5292 10.2925 10.0724 10.2925C7.61571 10.2925 5.62436 8.43606 5.62436 6.14617ZM14.5472 12.4252C14.4907 12.4674 13.4236 13.2535 11.6427 13.5916L14.3307 16.0748C14.8034 16.5147 14.804 17.2285 14.3321 17.6691C13.8602 18.1097 13.0946 18.1104 12.6216 17.6704L10.012 15.3016L7.64177 17.6552C7.4046 17.8846 7.08805 18 6.77109 18C6.46897 18 6.16645 17.8952 5.93169 17.6842C5.45075 17.252 5.43691 16.5384 5.90062 16.0902L8.4519 13.6048C6.62134 13.2746 5.51009 12.468 5.45295 12.4252C4.93171 12.0357 4.84811 11.3262 5.26591 10.8404C5.6839 10.3547 6.44492 10.2767 6.96616 10.6662C6.97719 10.6744 8.13936 11.4883 10.012 11.4895C11.8847 11.4883 13.0228 10.6744 13.0338 10.6662C13.5551 10.2767 14.3163 10.3547 14.7341 10.8404C15.1519 11.3262 15.0683 12.0357 14.5472 12.4252Z" fill="#D2D5DD"/>
</svg>
