<svg width="24" height="24" viewBox="0 0 24 24" fill="none" xmlns="http://www.w3.org/2000/svg">
<g clip-path="url(#clip0_24531_3491)">
<path d="M12 2C6.475 2 2 6.475 2 12C2 17.525 6.475 22 12 22C17.525 22 22 17.525 22 12C22 6.475 17.525 2 12 2Z" fill="#A1A6B4"/>
<rect x="9" y="8" width="2" height="8" rx="1" fill="white"/>
<rect x="13" y="8" width="2" height="8" rx="1" fill="white"/>
</g>
<defs >
<clipPath id="clip0_24531_3491">
<rect  width="24" height="24" fill="white"/>
</clipPath>
</defs>
</svg>


<svg xmlns="http://www.w3.org/2000/svg" xmlns:xlink="http://www.w3.org/1999/xlink" width="20px" height="20px" viewBox="0 0 20 20" version="1.1">
<g id="surface1">
<path style=" stroke:none;fill-rule:nonzero;fill:rgb(63.137255%,65.098039%,70.588235%);fill-opacity:1;" d="M 10 1.667969 C 5.394531 1.667969 1.667969 5.394531 1.667969 10 C 1.667969 14.605469 5.394531 18.332031 10 18.332031 C 14.605469 18.332031 18.332031 14.605469 18.332031 10 C 18.332031 5.394531 14.605469 1.667969 10 1.667969 Z M 10 1.667969 "/>
<path style=" stroke:none;fill-rule:nonzero;fill:rgb(100%,100%,100%);fill-opacity:1;" d="M 8.332031 6.667969 C 8.792969 6.667969 9.167969 7.039062 9.167969 7.5 L 9.167969 12.5 C 9.167969 12.960938 8.792969 13.332031 8.332031 13.332031 C 7.875 13.332031 7.5 12.960938 7.5 12.5 L 7.5 7.5 C 7.5 7.039062 7.875 6.667969 8.332031 6.667969 Z M 8.332031 6.667969 "/>
<path style=" stroke:none;fill-rule:nonzero;fill:rgb(100%,100%,100%);fill-opacity:1;" d="M 11.667969 6.667969 C 12.125 6.667969 12.5 7.039062 12.5 7.5 L 12.5 12.5 C 12.5 12.960938 12.125 13.332031 11.667969 13.332031 C 11.207031 13.332031 10.832031 12.960938 10.832031 12.5 L 10.832031 7.5 C 10.832031 7.039062 11.207031 6.667969 11.667969 6.667969 Z M 11.667969 6.667969 "/>
</g>
</svg>
