<svg width="12" height="13" viewBox="0 0 12 13" fill="none" xmlns="http://www.w3.org/2000/svg">
<path d="M10 9.18876C9.49333 9.18876 9.04 9.38454 8.69333 9.69127L3.94 6.98293C3.97333 6.83283 4 6.68273 4 6.5261C4 6.36948 3.97333 6.21938 3.94 6.06928L8.64 3.38705C9 3.71335 9.47333 3.91566 10 3.91566C11.1067 3.91566 12 3.04116 12 1.95783C12 0.874498 11.1067 0 10 0C8.89333 0 8 0.874498 8 1.95783C8 2.11446 8.02667 2.26456 8.06 2.41466L3.36 5.09689C3 4.77058 2.52667 4.56827 2 4.56827C0.893333 4.56827 0 5.44277 0 6.5261C0 7.60944 0.893333 8.48394 2 8.48394C2.52667 8.48394 3 8.28163 3.36 7.95532L8.10667 10.6702C8.07333 10.8072 8.05333 10.9508 8.05333 11.0944C8.05333 12.1451 8.92667 13 10 13C11.0733 13 11.9467 12.1451 11.9467 11.0944C11.9467 10.0437 11.0733 9.18876 10 9.18876ZM10 1.30522C10.3667 1.30522 10.6667 1.5989 10.6667 1.95783C10.6667 2.31677 10.3667 2.61044 10 2.61044C9.63333 2.61044 9.33333 2.31677 9.33333 1.95783C9.33333 1.5989 9.63333 1.30522 10 1.30522ZM2 7.17871C1.63333 7.17871 1.33333 6.88504 1.33333 6.5261C1.33333 6.16717 1.63333 5.87349 2 5.87349C2.36667 5.87349 2.66667 6.16717 2.66667 6.5261C2.66667 6.88504 2.36667 7.17871 2 7.17871ZM10 11.76C9.63333 11.76 9.33333 11.4664 9.33333 11.1074C9.33333 10.7485 9.63333 10.4548 10 10.4548C10.3667 10.4548 10.6667 10.7485 10.6667 11.1074C10.6667 11.4664 10.3667 11.76 10 11.76Z" fill="#A1A6B4"/>
</svg>
