<svg width="114" height="315" viewBox="0 0 114 315" fill="none" xmlns="http://www.w3.org/2000/svg">
<path d="M72.7751 -50C33.1346 -50 1 -39.7391 1 -27.0816C1 -14.4242 33.1346 -4.16321 72.7751 -4.16321C94.9906 -4.16321 113 -8.50679 113 -13.8649C113 -19.223 94.9906 -23.5665 72.7751 -23.5665C33.1346 -23.5665 1 -13.3056 1 -0.648186C1 12.0094 33.1346 22.2706 72.7751 22.2706C94.9906 22.2706 113 17.9268 113 12.5686C113 7.21049 94.9906 2.86692 72.7751 2.86692C33.1346 2.86692 1 13.1908 1 25.9259C1 38.6609 33.1346 48.9851 72.7751 48.9851C94.9906 48.9851 113 44.6414 113 39.2831C113 33.9249 94.9906 29.582 72.7751 29.582C33.1346 29.582 1 39.8425 1 52.5C1 65.1575 33.1346 75.418 72.7751 75.418C94.9906 75.418 113 71.0751 113 65.7169C113 60.3586 94.9906 56.0149 72.7751 56.0149C33.1346 56.0149 1 66.2762 1 78.9337C1 91.5912 33.1346 101.852 72.7751 101.852C94.9906 101.852 113 97.508 113 92.1506C113 86.7923 94.9906 82.4485 72.7751 82.4485C33.1346 82.4485 1 92.7099 1 105.367C1 118.024 33.1346 128.285 72.7751 128.285C94.9906 128.285 113 123.942 113 118.583C113 113.226 94.9906 108.882 72.7751 108.882C33.1346 108.882 1 119.206 1 131.941C1 144.676 33.1346 155 72.7751 155M72.7751 109C33.1346 109 1 119.261 1 131.918C1 144.576 33.1346 154.837 72.7751 154.837C94.9906 154.837 113 150.493 113 145.135C113 139.777 94.9906 135.433 72.7751 135.433C33.1346 135.433 1 145.694 1 158.352C1 171.009 33.1346 181.271 72.7751 181.271C94.9906 181.271 113 176.927 113 171.569C113 166.211 94.9906 161.867 72.7751 161.867C33.1346 161.867 1 172.191 1 184.926C1 197.661 33.1346 207.985 72.7751 207.985C94.9906 207.985 113 203.641 113 198.283C113 192.925 94.9906 188.582 72.7751 188.582C33.1346 188.582 1 198.842 1 211.5C1 224.158 33.1346 234.418 72.7751 234.418C94.9906 234.418 113 230.075 113 224.717C113 219.359 94.9906 215.015 72.7751 215.015C33.1346 215.015 1 225.276 1 237.934C1 250.591 33.1346 260.852 72.7751 260.852C94.9906 260.852 113 256.508 113 251.151C113 245.792 94.9906 241.449 72.7751 241.449C33.1346 241.449 1 251.71 1 264.367C1 277.024 33.1346 287.285 72.7751 287.285C94.9906 287.285 113 282.942 113 277.583C113 272.226 94.9906 267.882 72.7751 267.882C33.1346 267.882 1 278.206 1 290.941C1 303.676 33.1346 314 72.7751 314" stroke="#A1A6B4" stroke-linecap="round"/>
</svg>
