<svg width="34" height="34" viewBox="0 0 34 34" fill="none" xmlns="http://www.w3.org/2000/svg">
<rect width="33.33" height="33.33" rx="2" fill="#A1A6B4"/>
<path d="M17.7487 23.332H16.3854C16.3854 23.332 13.3772 23.5131 10.7277 20.7545C7.83835 17.7461 5.28686 11.7765 5.28686 11.7765C5.28686 11.7765 5.13973 11.3853 5.29964 11.1959C5.47938 10.9831 5.96857 10.9695 5.96857 10.9695L9.22782 10.9482C9.22782 10.9482 9.53491 10.9994 9.75468 11.1608C9.93588 11.294 10.0373 11.543 10.0373 11.543C10.0373 11.543 10.5641 12.8752 11.2617 14.0804C12.6233 16.4331 13.2575 16.9477 13.7198 16.6957C14.3934 16.3283 14.1914 13.3698 14.1914 13.3698C14.1914 13.3698 14.2037 12.296 13.8522 11.8177C13.58 11.4475 13.0667 11.3391 12.84 11.3089C12.6566 11.2844 12.9576 10.8587 13.3478 10.6676C13.9343 10.3803 14.9699 10.3641 16.1938 10.3765C17.1473 10.3863 17.4219 10.4458 17.7946 10.5357C18.6597 10.7446 18.6327 11.4138 18.5745 12.8578L18.5745 12.8579C18.5571 13.2893 18.537 13.7899 18.537 14.3681C18.537 14.4983 18.5332 14.6371 18.5293 14.7798V14.7799C18.509 15.5193 18.4858 16.3656 18.9726 16.6802C19.2223 16.8415 19.8331 16.7042 21.3603 14.111C22.084 12.8819 22.627 11.4368 22.627 11.4368C22.627 11.4368 22.7453 11.1791 22.9297 11.0688C23.1181 10.9561 23.3726 10.9907 23.3726 10.9907L26.8023 10.9695C26.8023 10.9695 27.8329 10.8466 27.9997 11.3118C28.1747 11.8001 27.6146 12.9402 26.2135 14.8077C24.8827 16.5813 24.236 17.2332 24.2968 17.8106C24.3401 18.2221 24.7429 18.5959 25.5137 19.311L25.5668 19.3603C27.2548 20.9272 27.7051 21.7501 27.8121 21.9456C27.8207 21.9615 27.8271 21.9732 27.8318 21.9809C28.5873 23.2337 26.9939 23.332 26.9939 23.332L23.9477 23.3746C23.9477 23.3746 23.2931 23.5041 22.4317 22.9125C21.9813 22.6033 21.5409 22.0985 21.1214 21.6174L21.1214 21.6174C20.4798 20.8818 19.8868 20.2019 19.3806 20.3624C18.5317 20.6319 18.5583 22.4613 18.5583 22.4613C18.5583 22.4613 18.5645 22.852 18.371 23.0601C18.1605 23.2866 17.7487 23.332 17.7487 23.332Z" fill="#121723"/>
</svg>
