<svg width="20" height="20" viewBox="0 0 20 20" fill="none" xmlns="http://www.w3.org/2000/svg">
<path fill-rule="evenodd" clip-rule="evenodd" d="M0 6C0 2.68652 2.68652 0 6 0H14C17.3135 0 20 2.68652 20 6V14C20 17.3135 17.3135 20 14 20H6C2.68652 20 0 17.3135 0 14V6ZM15.3438 11.4473C15.7139 11.7778 16.0845 12.1089 16.4121 12.4795C16.5415 12.626 16.6665 12.7754 16.7769 12.9346C16.835 13.0181 16.8892 13.104 16.938 13.1934C17.0425 13.3848 17.0439 13.5859 16.9727 13.7383C16.9058 13.8809 16.7754 13.981 16.606 13.9917L14.4209 13.9912C13.8569 14.0356 13.4077 13.8208 13.0293 13.4575C12.7271 13.1675 12.4468 12.8584 12.1558 12.5586C12.0366 12.4355 11.9116 12.3198 11.7622 12.2285C11.5962 12.1265 11.4419 12.0991 11.3086 12.1455C11.2031 12.1821 11.1104 12.2656 11.0352 12.3955C10.8613 12.6938 10.8213 13.0244 10.8047 13.3564C10.7812 13.8418 10.6255 13.9688 10.1089 13.9917C9.00439 14.0405 7.95654 13.8823 6.98242 13.3574C6.12305 12.8945 5.45801 12.2417 4.87842 11.502C3.75 10.0601 2.88574 8.47754 2.10938 6.84912C1.93457 6.48242 2.0625 6.28662 2.4917 6.27881C3.20459 6.26611 3.91797 6.26758 4.63086 6.27832C4.9209 6.28271 5.11279 6.43896 5.22461 6.69727C5.60986 7.59082 6.08203 8.44092 6.67432 9.229L6.78369 9.37207C6.90918 9.53174 7.04541 9.68262 7.22217 9.79688C7.4751 9.96045 7.66797 9.90625 7.7876 9.64014C7.86377 9.4707 7.89697 9.28955 7.91357 9.1084C7.97021 8.4873 7.97705 7.86621 7.87891 7.24756C7.81787 6.86035 7.58643 6.61035 7.17725 6.53711C6.96826 6.49951 6.99902 6.42676 7.10059 6.31445C7.27637 6.12061 7.44141 6.00049 7.771 6.00049L10.2397 6C10.6284 6.07178 10.7158 6.23633 10.7686 6.60596L10.771 9.19092C10.7661 9.33398 10.8472 9.75781 11.1191 9.85107C11.3374 9.91895 11.4814 9.75391 11.6118 9.62402C12.2036 9.03174 12.6255 8.33301 13.0034 7.60986C13.1699 7.29102 13.314 6.96094 13.4536 6.63037C13.5024 6.51562 13.5635 6.42822 13.6455 6.36816C13.7378 6.30029 13.8564 6.26758 14.0117 6.26953L16.3887 6.27246C16.4585 6.27246 16.5298 6.27295 16.5991 6.28418C16.8101 6.31836 16.9404 6.37939 16.9985 6.4834C17.0503 6.57666 17.0439 6.70508 16.9854 6.87939C16.7979 7.43555 16.4399 7.90283 16.0835 8.36768L16.041 8.42334C15.6436 8.94092 15.2202 9.43994 14.8271 9.95996C14.4658 10.4346 14.4941 10.6738 14.9429 11.0864C15.0752 11.208 15.2095 11.3276 15.3438 11.4473Z" fill="#D2D5DD"/>
</svg>
