<svg width="1024" height="12" viewBox="0 0 1024 12" fill="none" xmlns="http://www.w3.org/2000/svg">
<path opacity="0.6" d="M0 1C8.25327 1 8.25326 11 16.5065 11C24.7598 11 24.7598 1 33.0131 1C41.2663 1 41.2664 11 49.5003 11C57.7538 11 57.7538 1 65.9874 1C74.2409 1 74.2409 11 82.4746 11C90.728 11 90.728 1 98.9809 1C107.234 1 107.234 11 115.488 11C123.741 11 123.741 1 131.994 1C140.248 1 140.247 11 148.501 11C156.754 11 156.754 1 165.007 1C173.261 1 173.261 11 181.514 11C189.767 11 189.767 1 198.02 1C206.274 1 206.274 11 214.508 11C222.761 11 222.761 1 230.995 1C239.248 1 239.248 11 247.482 11C255.735 11 255.735 1 263.988 1C272.242 1 272.242 11 280.495 11C288.748 11 288.748 1 297.002 1C305.255 1 305.255 11 313.508 11C321.761 11 321.761 1 329.995 1C338.249 1 338.249 11 346.483 11C354.736 11 354.736 1 362.97 1C371.223 1 371.223 11 379.476 11C387.729 11 387.729 1 395.983 1C404.236 1 404.236 11 412.489 11C420.743 11 420.743 1 428.996 1C437.249 1 437.249 11 445.502 11C453.756 11 453.756 1 462.009 1C470.262 1 470.262 11 478.515 11C486.769 11 486.769 1 495.003 1C503.256 1 503.256 11 511.49 11C519.743 11 519.743 1 527.977 1C536.23 1 536.23 11 544.483 11C552.737 11 552.737 1 560.99 1C569.243 1 569.243 11 577.496 11C585.75 11 585.75 1 594.003 1C602.256 1 602.256 11 610.51 11C618.763 11 618.763 1 627.016 1C635.269 1 635.269 11 643.523 11C651.776 11 651.776 1 660.01 1C668.263 1 668.263 11 676.497 11C684.751 11 684.751 1 692.984 1C701.238 1 701.238 11 709.491 11C717.744 11 717.744 1 725.997 1M726.999 1C735.252 1 735.252 11 743.505 11C751.758 11 751.758 1 760.012 1C768.265 1 768.265 11 776.499 11C784.752 11 784.752 1 792.986 1C801.24 1 801.239 11 809.473 11C817.727 11 817.727 1 825.979 1C834.233 1 834.233 11 842.486 11C850.739 11 850.739 1 858.993 1C867.246 1 867.246 11 875.5 11C883.752 11 883.752 1 892.006 1C900.259 1 900.259 11 908.512 11C916.766 11 916.766 1 925.019 1C933.272 1 933.272 11 941.506 11C949.76 11 949.76 1 957.993 1C966.247 1 966.247 11 974.48 11C982.734 11 982.734 1 990.987 1C999.24 1 999.24 11 1007.49 11C1015.75 11 1015.75 1 1024 1" stroke="#F5F6F7" stroke-miterlimit="10" stroke-linecap="square"/>
</svg>
