<svg width="128" height="13" viewBox="0 0 128 13" fill="none" xmlns="http://www.w3.org/2000/svg">
<path d="M14.368 0.799999H15.84L12.32 12H10.816L7.984 3.04L5.152 12H3.664L0.144 0.799999H1.616L4.416 10.368L7.392 0.799999H8.592L11.568 10.368L14.368 0.799999ZM16.4928 7.424H22.2048V8.64H16.4928V7.424ZM37.0868 0.799999H38.5588L35.0388 12H33.5348L30.7028 3.04L27.8708 12H26.3828L22.8628 0.799999H24.3348L27.1348 10.368L30.1108 0.799999H31.3108L34.2868 10.368L37.0868 0.799999ZM39.7711 12H38.3151L43.1951 0.799999H44.6831L49.5471 12H48.1071L46.9551 9.296H40.9231L39.7711 12ZM43.7551 2.608L41.4511 8.048H46.4271L44.1071 2.608C44.0858 2.55467 44.0271 2.41067 43.9311 2.176C43.8351 2.42133 43.7765 2.56533 43.7551 2.608ZM55.1143 12H53.7223L49.0823 0.799999H50.5223L54.4103 10.496L58.3142 0.799999H59.7543L55.1143 12ZM61.4095 0.799999H68.9615V2.08H62.7535V5.712H68.4815V6.992H62.7535V10.72H69.0575V12H61.4095V0.799999ZM86.1158 3.872C86.4784 4.62933 86.6598 5.472 86.6598 6.4C86.6598 7.328 86.4784 8.17067 86.1158 8.928C85.7638 9.68533 85.2944 10.2933 84.7078 10.752C84.1211 11.2107 83.4758 11.568 82.7718 11.824C82.0678 12.0693 81.3531 12.192 80.6278 12.192C79.9024 12.192 79.1878 12.0693 78.4838 11.824C77.7798 11.568 77.1344 11.2107 76.5478 10.752C75.9611 10.2933 75.4864 9.68533 75.1238 8.928C74.7718 8.17067 74.5958 7.328 74.5958 6.4C74.5958 5.472 74.7718 4.62933 75.1238 3.872C75.4864 3.11467 75.9611 2.50667 76.5478 2.048C77.1344 1.58933 77.7798 1.23733 78.4838 0.992C79.1878 0.736 79.9024 0.608 80.6278 0.608C81.3531 0.608 82.0678 0.736 82.7718 0.992C83.4758 1.23733 84.1211 1.58933 84.7078 2.048C85.2944 2.50667 85.7638 3.11467 86.1158 3.872ZM75.5718 4.096C75.2518 4.77867 75.0918 5.54667 75.0918 6.4C75.0918 7.25333 75.2518 8.02667 75.5718 8.72C75.9024 9.40267 76.3344 9.95733 76.8678 10.384C77.4011 10.8107 77.9878 11.1413 78.6278 11.376C79.2784 11.6 79.9451 11.712 80.6278 11.712C81.3104 11.712 81.9718 11.6 82.6118 11.376C83.2624 11.1413 83.8544 10.8107 84.3878 10.384C84.9211 9.95733 85.3478 9.40267 85.6678 8.72C85.9984 8.02667 86.1638 7.25333 86.1638 6.4C86.1638 5.54667 85.9984 4.77867 85.6678 4.096C85.3478 3.40267 84.9211 2.84267 84.3878 2.416C83.8544 1.98933 83.2624 1.664 82.6118 1.44C81.9718 1.20533 81.3104 1.088 80.6278 1.088C79.9451 1.088 79.2784 1.20533 78.6278 1.44C77.9878 1.664 77.4011 1.98933 76.8678 2.416C76.3344 2.84267 75.9024 3.40267 75.5718 4.096ZM79.3158 9.536H78.3558V3.248H81.0598C81.4544 3.248 81.8171 3.296 82.1478 3.392C82.4784 3.488 82.7771 3.69067 83.0438 4C83.3211 4.30933 83.4598 4.71467 83.4598 5.216C83.4598 6.176 83.0011 6.784 82.0838 7.04L83.8438 9.536H82.7398L81.1078 7.184H80.8998H79.3158V9.536ZM79.3158 4.176V6.256H80.9638C81.1771 6.256 81.3478 6.25067 81.4758 6.24C81.6038 6.21867 81.7584 6.18133 81.9398 6.128C82.1318 6.07467 82.2758 5.97333 82.3718 5.824C82.4678 5.664 82.5158 5.46133 82.5158 5.216C82.5158 4.97067 82.4678 4.77333 82.3718 4.624C82.2758 4.464 82.1318 4.35733 81.9398 4.304C81.7584 4.25067 81.6038 4.21867 81.4758 4.208C81.3478 4.18667 81.1771 4.176 80.9638 4.176H79.3158ZM92.4786 1.984C93.492 1.28 94.6546 0.927999 95.9666 0.927999C97.0973 0.927999 97.9986 1.184 98.6706 1.696C99.3426 2.208 99.6786 2.92267 99.6786 3.84C99.6786 4.27733 99.5933 4.688 99.4226 5.072C99.2626 5.456 99.0173 5.808 98.6866 6.128C98.3666 6.448 98.052 6.72 97.7426 6.944C97.444 7.15733 97.0653 7.39733 96.6066 7.664C96.5533 7.696 96.388 7.792 96.1106 7.952C95.844 8.112 95.6733 8.21333 95.5986 8.256C95.5346 8.29867 95.3853 8.39467 95.1506 8.544C94.9266 8.68267 94.7773 8.784 94.7026 8.848C94.6386 8.912 94.5213 9.01333 94.3506 9.152C94.1906 9.29067 94.0786 9.408 94.0146 9.504C93.9613 9.6 93.8866 9.72267 93.7906 9.872C93.7053 10.0107 93.6466 10.1493 93.6146 10.288C93.5826 10.4267 93.5666 10.576 93.5666 10.736L99.7586 10.72V12H92.0946V11.36C92.0946 10.7627 92.1906 10.224 92.3826 9.744C92.5746 9.25333 92.8466 8.83733 93.1986 8.496C93.5613 8.144 93.9186 7.85067 94.2706 7.616C94.6226 7.37067 95.0333 7.10933 95.5026 6.832C95.6093 6.77867 95.6893 6.736 95.7426 6.704C96.7133 6.13867 97.348 5.70667 97.6466 5.408C98.1053 4.93867 98.3346 4.41067 98.3346 3.824C98.3346 3.29067 98.116 2.88533 97.6786 2.608C97.252 2.32 96.644 2.176 95.8546 2.176C94.7026 2.176 93.5773 2.56 92.4786 3.328V1.984ZM102.61 10.64C101.799 9.60533 101.394 8.24533 101.394 6.56C101.394 4.87467 101.799 3.51467 102.61 2.48C103.421 1.44533 104.615 0.927999 106.194 0.927999C107.783 0.927999 108.983 1.44533 109.794 2.48C110.605 3.504 111.01 4.864 111.01 6.56C111.01 8.256 110.605 9.62133 109.794 10.656C108.983 11.68 107.783 12.192 106.194 12.192C104.615 12.192 103.421 11.6747 102.61 10.64ZM108.786 9.792C109.362 9.03467 109.65 7.95733 109.65 6.56C109.65 5.16267 109.362 4.09067 108.786 3.344C108.221 2.58667 107.357 2.208 106.194 2.208C105.031 2.208 104.167 2.58667 103.602 3.344C103.037 4.09067 102.754 5.16267 102.754 6.56C102.754 7.95733 103.037 9.03467 103.602 9.792C104.167 10.5387 105.031 10.912 106.194 10.912C107.357 10.912 108.221 10.5387 108.786 9.792ZM112.916 1.984C113.929 1.28 115.092 0.927999 116.404 0.927999C117.535 0.927999 118.436 1.184 119.108 1.696C119.78 2.208 120.116 2.92267 120.116 3.84C120.116 4.27733 120.031 4.688 119.86 5.072C119.7 5.456 119.455 5.808 119.124 6.128C118.804 6.448 118.489 6.72 118.18 6.944C117.881 7.15733 117.503 7.39733 117.044 7.664C116.991 7.696 116.825 7.792 116.548 7.952C116.281 8.112 116.111 8.21333 116.036 8.256C115.972 8.29867 115.823 8.39467 115.588 8.544C115.364 8.68267 115.215 8.784 115.14 8.848C115.076 8.912 114.959 9.01333 114.788 9.152C114.628 9.29067 114.516 9.408 114.452 9.504C114.399 9.6 114.324 9.72267 114.228 9.872C114.143 10.0107 114.084 10.1493 114.052 10.288C114.02 10.4267 114.004 10.576 114.004 10.736L120.196 10.72V12H112.532V11.36C112.532 10.7627 112.628 10.224 112.82 9.744C113.012 9.25333 113.284 8.83733 113.636 8.496C113.999 8.144 114.356 7.85067 114.708 7.616C115.06 7.37067 115.471 7.10933 115.94 6.832C116.047 6.77867 116.127 6.736 116.18 6.704C117.151 6.13867 117.785 5.70667 118.084 5.408C118.543 4.93867 118.772 4.41067 118.772 3.824C118.772 3.29067 118.553 2.88533 118.116 2.608C117.689 2.32 117.081 2.176 116.292 2.176C115.14 2.176 114.015 2.56 112.916 3.328V1.984ZM124.504 1.12H125.496V10.72H127.528V12H121.864V10.72H124.152V2.544L121.864 3.408V2.128L124.504 1.12Z" fill="#A1A6B4"/>
</svg>
